<svg width="100" height="100" viewBox="0 0 100 100" fill="none" xmlns="http://www.w3.org/2000/svg">
<path d="M50 55.8334L29.5833 76.25C28.8194 77.0139 27.8472 77.3959 26.6666 77.3959C25.4861 77.3959 24.5138 77.0139 23.75 76.25C22.9861 75.4861 22.6041 74.5139 22.6041 73.3334C22.6041 72.1528 22.9861 71.1806 23.75 70.4167L44.1666 50L23.75 29.5834C22.9861 28.8195 22.6041 27.8472 22.6041 26.6667C22.6041 25.4861 22.9861 24.5139 23.75 23.75C24.5138 22.9861 25.4861 22.6042 26.6666 22.6042C27.8472 22.6042 28.8194 22.9861 29.5833 23.75L50 44.1667L70.4166 23.75C71.1805 22.9861 72.1527 22.6042 73.3333 22.6042C74.5138 22.6042 75.4861 22.9861 76.25 23.75C77.0138 24.5139 77.3958 25.4861 77.3958 26.6667C77.3958 27.8472 77.0138 28.8195 76.25 29.5834L55.8333 50L76.25 70.4167C77.0138 71.1806 77.3958 72.1528 77.3958 73.3334C77.3958 74.5139 77.0138 75.4861 76.25 76.25C75.4861 77.0139 74.5138 77.3959 73.3333 77.3959C72.1527 77.3959 71.1805 77.0139 70.4166 76.25L50 55.8334Z" fill="black"/>
</svg>
