<svg width="100" height="100" viewBox="0 0 100 100" fill="none" xmlns="http://www.w3.org/2000/svg">
<path d="M16.6667 75C15.4861 75 14.4972 74.6 13.7 73.8C12.9028 73 12.5028 72.0111 12.5 70.8333C12.4972 69.6556 12.8972 68.6667 13.7 67.8667C14.5028 67.0667 15.4917 66.6667 16.6667 66.6667H83.3333C84.5139 66.6667 85.5042 67.0667 86.3042 67.8667C87.1042 68.6667 87.5028 69.6556 87.5 70.8333C87.4972 72.0111 87.0972 73.0014 86.3 73.8042C85.5028 74.6069 84.5139 75.0056 83.3333 75H16.6667ZM16.6667 54.1667C15.4861 54.1667 14.4972 53.7667 13.7 52.9667C12.9028 52.1667 12.5028 51.1778 12.5 50C12.4972 48.8222 12.8972 47.8333 13.7 47.0333C14.5028 46.2333 15.4917 45.8333 16.6667 45.8333H83.3333C84.5139 45.8333 85.5042 46.2333 86.3042 47.0333C87.1042 47.8333 87.5028 48.8222 87.5 50C87.4972 51.1778 87.0972 52.1681 86.3 52.9708C85.5028 53.7736 84.5139 54.1722 83.3333 54.1667H16.6667ZM16.6667 33.3333C15.4861 33.3333 14.4972 32.9333 13.7 32.1333C12.9028 31.3333 12.5028 30.3444 12.5 29.1667C12.4972 27.9889 12.8972 27 13.7 26.2C14.5028 25.4 15.4917 25 16.6667 25H83.3333C84.5139 25 85.5042 25.4 86.3042 26.2C87.1042 27 87.5028 27.9889 87.5 29.1667C87.4972 30.3444 87.0972 31.3347 86.3 32.1375C85.5028 32.9403 84.5139 33.3389 83.3333 33.3333H16.6667Z" fill="black"/>
</svg>
